<?xml version="1.0" encoding="UTF-8"?><svg id="Layer_2" xmlns="http://www.w3.org/2000/svg" width="82.18" height="51.5672" viewBox="0 0 82.18 51.5672"><defs><style>.cls-1{fill:#fff;}</style></defs><g id="Layer_1-2"><path class="cls-1" d="M8.97,46.53l4.78-12.15,6.93-17.5.35-.92h.0099l3.6801-9.31,3.65,9.31,7.24,18.42,1.87,4.8c1.04,3.18,4.67,2.82,4.67,2.82h10.59c9.6199,0,15.9-6.64,15.9-15.47,0-8.79-6.28-15.53-15.9-15.53h-10.52l3.64,3.44h6.88c7.67,0,11.9,5.39,11.9,12.09,0,6.64-4.3699,12.03-11.9,12.03h-7.14c-1.6801.12-1.89-1.22-1.89-1.22L28.66.01h-7.96L0,51.53h23.7v-5h-14.73Z"/><path class="cls-1" d="M55.76,0h-17.5l6.08,5.72h11.42c12.7401,0,19.7701,8.96,19.7701,20.08,0,11.05-7.26,20.01-19.7701,20.01h-11.7781c-.038.0096-.0731.0232-.1173.0239-.0038.0005-.0072.0007-.011.0013-.0015-.0004-.0028-.0009-.0046-.0009-.0023.0005-.0043.0014-.0069.0014-.0052,0-.0094-.0015-.0137-.0028,0,0-.0002,0-.0002,0-.0017,0-.0031-.0005-.0045-.0009-.0115.0007-.0195.0064-.0315.0064-.001,0-.0016-.0005-.0026-.0005-.0112.0035-.0213.0053-.0324.0088-5.4991.7861-8.0706-1.5632-8.0707-1.5633l-7.8867-18.9686-5.6937,2.4878,7.3738,18.3775c4.04,6.18,8.67,5.35,8.67,5.35h17.61c15.9901,0,26.42-11.05,26.42-25.73,0-14.6-10.4299-25.8-26.42-25.8ZM35.6865,44.2833l.1277.1724c-.0663-.0703-.1041-.1157-.1041-.1157l-.0236-.0566Z"/></g></svg>