<?xml version="1.0" encoding="UTF-8"?><svg id="Layer_2" xmlns="http://www.w3.org/2000/svg" width="235.1699" height="55.461" viewBox="0 0 235.1699 55.461"><defs><style>.cls-1{fill:#fff;}</style></defs><g id="Layer_1-2"><polyline class="cls-1" points="19.81 45.24 36.38 45.24 38.51 45.24 37.96 43.03 35.98 35.12 35.79 35.12 33.04 26.23 32.3 23.85"/><polyline class="cls-1" points="25.28 23.35 24.62 25.49 21.59 35.27 21.7 35.27 19.25 43.99"/><path class="cls-1" d="M16.07,42.4503c-1.27-3.1-2.48-6.04-4.04-8.45l-6.89,20.83c-.1.31.13.63.46.63h10.09c.21,0,.39-.13.45-.33l2.3-7.24c-.85-1.76-1.62-3.62-2.37-5.44Z"/><path class="cls-1" d="M52.21,54.8303l-6.39-19.4c-2.61,4.16-4.9301,7.91-7.25,11.16l2.64,8.54c.07.2.25.33.46.33h10.09c.3199,0,.55-.32.45-.63Z"/><path class="cls-1" d="M36.72,5.7902C35.38,1.7203,31.16-.7797,26.77.2203c-2.93.67-5.22,2.98-6.16,5.84l-3.46,10.47c3.03,1.3,5.85,3.3799,8.13,5.94l3.43-11.09,3.59,11.59c2.08-3.26,4.41-6.45,6.94-9.51l-2.52-7.67Z"/><path class="cls-1" d="M69.04,21.2203h-9.77c-2.3,0-4.17,1.86-4.17,4.17v25.9c0,2.3031,1.867,4.17,4.17,4.17h9.77c11.09,0,18.77-6.78,18.77-17.1s-7.68-17.14-18.77-17.14ZM69.04,49.0402h-.7197v-21.41h.7197c7.27,0,11.09,4.68,11.09,10.73,0,5.8-4.09,10.68-11.09,10.68Z"/><path class="cls-1" d="M35.7947,34.7198h-14.0546l-.0411.1456h-.1107l3.028-9.7769c.4968.6202.9619,1.2688,1.3858,1.9427,1.3226,2.1009,2.2686,4.4455,2.6609,6.9261.9176-1.9712,1.9427-3.9487,3.0723-5.9199.4208-.7372.8543-1.4713,1.3067-2.2053l2.7527,8.8878Z"/><path class="cls-1" d="M129.2603,10.771l-1.44,3.66-.83,2.1h-.09l-1.8,4.24-3.23,7.6c-2.17-1.25-4.73-1.94-7.57-1.94-1.66,0-3.24.24-4.71.68l4.04-9.57s0-.0099.01-.03l.01-.03.08-.18c.04-.12.11-.27.2-.46l.21-.51h.06c.01-.02.01-.03.02-.04.96-1.72,3.2-4.69,7.47-5.44l2.13-.02v-.06h5.44Z"/><path class="cls-1" d="M99.1499,41.1603c0-3.28.9701-6.2401,2.6501-8.64l-5.2001-14.47c-.3099-.86-.6801-1.69-1.11-2.48,0-.02-.01-.03-.01-.04-.1-.29-.3-.63-.5601-.9901-.01-.02-.03-.04-.0399-.06-1.4701-2.03-4.85-4.94-5.1-5.15l-.01-.01c-2.04-1.38-4.3601-2.36-6.8301-2.86-.0599-.01-.1299-.02-.1899-.03-.0901-.01-.17-.03-.26-.04l-29.3201-.29-1.3099-.01c-.28.04-.5499.09-.8199.16-.8501.22-1.67.6-2.3901,1.02-.0299.01-.0499.02-.0798.05-1.52,1.02-3.0901,2.5-4.28,3.72-.17.1801-.3301.35-.48.51-.1001.1-.1901.2-.28.3-.3401.37-.6301.7-.8401.9399-.0699.08-.1299.15-.1799.21-.13.15-.2.23-.2.23-.3201.3701-.6301.73-.9401,1.1-.4801.57-.9601,1.15-1.4301,1.73-2.5599,3.18-4.8699,6.46-6.8999,9.77-.03.05-.0601.09-.0801.14-.4199.69-.83,1.38-1.22,2.0699-1.13,1.97-2.16,3.95-3.08,5.92-.39-2.48-1.34-4.83-2.66-6.93-.39-.63-.83-1.2401-1.29-1.82-.03-.04-.06-.08-.09-.12-2.2-2.75-5.06-4.93-8.08-6.25-.58-.26-1.18-.49-1.77-.68-5.77-1.84-11.79-.4-14.77,6.35,5.22-.29,8.73,1.37,11.33,4.05.03.03.07.07.1.11.48.4901.92,1.02,1.34,1.58.03.04.06.08.09.13,2.76,3.73,4.4,8.71,6.39,13.21l.07.15.49,1.1c.01.02.02.03.02.04.06.12.11.24.1801.36,0,.02.0099.03.0099.04.12.25.2401.49.36.73.13.27.28.52.44.77.09.14.18.27.27.4,3.07,4.25,9.51,4.69,13.0499.51.1401-.17.28-.34.4202-.51.1099-.13.22-.26.3298-.4.3901-.48.78-.98,1.1602-1.5.01-.01.02-.02.0299-.04.09-.12.1801-.24.27-.36.01-.01.02-.02.03-.04.5-.67,1-1.37,1.5099-2.1.02-.04.04-.07.0701-.11,2.22-3.24,4.5-6.94,7-10.92.03-.05.0601-.09.0901-.14.3999-.64.8099-1.29,1.22-1.94.03-.05.0599-.09.09-.14,1.47-2.3,3.02-4.68,4.6801-7.1.1899-.27.3899-.55.58-.83.7001-.95,3.2001-4.06,5.65-4.08h13.4558c4.2605.2413,12.3491,1.5944,15.7385,8.1871.2834.5513.5232,1.0017.7273,1.3702l8.0884,21.0226c1.46,3.79,5.0599,6.28,9.0699,6.28.7201,0,1.4301-.08,2.12-.24-4.53-2.4901-7.3201-7.14-7.3201-12.94Z"/><polygon points="137.17 43.0903 137.17 55.4603 131.17 55.4603 131.17 48.3802 137.17 43.0903"/><polygon points="131.17 36.4603 137.17 30.4603 131.17 30.4603 131.17 36.4603"/><path d="M153.2,42.8139c.1854-5.8601-2.1309-10.8637-8.6162-11.1795l-.1895-.0072c-10.5827-.1531-17.7031,14.2069-27.4215,16.453-3.9138.7638-8.8572-1.8364-4.8008-3.7947,3.5627-2.1418,15.2084-1.4623,13.553-7.5558-3.0699-9.9188-16.4537-11.4308-22.2052-2.8276-5.711,8.4165.553,21.1891,11.1196,20.3917,8.0162-.2622,13.3561-6.5601,18.9351-11.6304,3.4175-3.3815,10.0558-8.4372,12.6672-2.1078.66,1.6783.7023,4.0347.7834,6.2609h-.0004v8.6439h6.1454v-6.6503c.1333-1.858.0228-3.9283.03-5.9961ZM107.7427,40.0419c-.2335-.2026-.3049-.5586-.2572-1.0287.2881-2.5463,2.4562-4.7983,5.0184-5.3999l.2153-.0537c2.1036-.483,4.1386-.1208,5.6848,1.2654,1.2789,1.1207,2.3387,2.8571.0167,3.3333-2.1202.5209-6.353,1.4267-8.7147,1.9504-.6475.1051-1.4484.3236-1.9631-.0667Z"/><path class="cls-1" d="M235.1699,43.0896c0-4.5625-1.6421-8.3119-4.4391-10.7197-.4935-.424-1.0188-.8068-1.5787-1.1422-1.9207-1.1612-4.2273-1.7972-6.8154-1.7972-2.0977,0-4.0278.4208-5.7236,1.1739-1.0094.4461-1.9365,1.0125-2.7686,1.6769-.6866.5505-1.3101,1.1644-1.8638,1.8415-.4966.6075-.9365,1.2593-1.3162,1.9554-1.022,1.8731-1.582,4.0373-1.582,6.3439,0,5.8345,3.1641,10.1218,7.9229,11.9949.7561.3005,1.5535.5347,2.3824.7056,1.0726.2247,2.2021.3386,3.3729.3386,3.9771,0,8.0081-1.1802,10.552-3.4393l-2.9679-4.2082c-1.6453,1.5378-4.6669,2.4617-6.8407,2.4617-.1328,0-.2626-.0032-.3892-.0063-.6992-.0253-1.3511-.1234-1.9521-.2784-2.9395-.7562-4.6891-2.9426-5.0308-5.4643h19.0378v-1.4365ZM216.0276,40.1091c.3164-2.4648,2.1199-5.4927,6.3091-5.4927,2.1357,0,3.6355.7183,4.6384,1.7275.5696.5727.9778,1.2404,1.2467,1.9206.2499.6233.386,1.2561.424,1.8446h-12.6182Z"/><path class="cls-1" d="M185.5303,49.661c-2.86,0-4.72-1.13-4.72-4.57v-11.2573h.0049v-3.6264c0-.0165-.0046-.0318-.0049-.0483v-.118h-.012c-.0876-1.3953-1.2393-2.5013-2.6566-2.4945l-7.5465.0358h-5.2195v-12.562c0-.6628-.5374-1.2001-1.2002-1.2001h-6.072v13.7621h-4.545v6.2514h4.545v14.1925c0,4.8433,2.7271,7.4341,7.7833,7.4341,3.0111,0,4.9427-.7885,6.0223-1.746l-1.5342-5.4067c-.3975.3943-1.4202.7885-2.4998.7885-1.5908,0-2.4995-1.2953-2.4995-2.9849v-12.2776h8.7046v13.8173c0,4.83,2.6499,7.81,8.27,7.81,4.1899,0,7.27-1.85,9.02-3.75v-4.88c-1.17,1.44-3.24,2.83-5.8401,2.83Z"/><path class="cls-1" d="M199.9303,33.051v5.03c.2999-.42.7301-.82,1.24-1.18.7201-.5,1.6-.91,2.51-1.21.87-.27,1.77-.43,2.5699-.43.74,0,1.3701.05,1.8501.15v-6.36c-.41,0-.8301.03-1.23.09-2.75.38-5.3701,1.99-6.9401,3.91Z"/><rect class="cls-1" x="192.2004" y="30.6613" width="6.7332" height="24.7997"/><path class="cls-1" d="M165.3803,14.281v6.49h-41.56v-10h37.19c1.94,0,3.61,1.44,4.37,3.51Z"/><polygon class="cls-1" points="123.8203 10.771 129.2603 10.771 123.8203 10.831 123.8203 10.771"/><path class="cls-1" d="M158.1035,22.896s.1286-2.125-3.5773-2.125h3.5773v2.125Z"/><path class="cls-1" d="M124.0662,23.2042s1.4012-2.4332,4.5776-2.4332h-3.5435l-1.0341,2.4332Z"/><path class="cls-1" d="M113.9303,16.841c.02-.04.05-.08.07-.13l-.27.59c.04-.12.11-.27.2-.46Z"/><path class="cls-1" d="M114.4203,15.771l-.2.52c-.01.01-.01.02-.02.04-.06.11-.12.22-.17.32l.14-.32.25-.56Z"/></g></svg>